{
    "asset" : {
        "generator" : "Khronos glTF Blender I/O v3.2.43",
        "version" : "2.0"
    },
    "scene" : 0,
    "scenes" : [
        {
            "name" : "Scene",
            "nodes" : [
                0
            ]
        }
    ],
    "nodes" : [
        {
            "mesh" : 0,
            "name" : "Curve.001",
            "scale" : [
                48.15073776245117,
                48.15073776245117,
                48.15073776245117
            ]
        }
    ],
    "materials" : [
        {
            "doubleSided" : true,
            "name" : "SVGMat.002",
            "pbrMetallicRoughness" : {
                "baseColorFactor" : [
                    0.5271151065826416,
                    0,
                    0,
                    1
                ],
                "metallicFactor" : 0,
                "roughnessFactor" : 0.4000000059604645
            }
        }
    ],
    "meshes" : [
        {
            "name" : "Curve.001",
            "primitives" : [
                {
                    "attributes" : {
                        "POSITION" : 0,
                        "NORMAL" : 1,
                        "TEXCOORD_0" : 2
                    },
                    "indices" : 3,
                    "material" : 0
                }
            ]
        }
    ],
    "accessors" : [
        {
            "bufferView" : 0,
            "componentType" : 5126,
            "count" : 1902,
            "max" : [
                0.06350039690732956,
                0.004999999888241291,
                0.06348759680986404
            ],
            "min" : [
                -0.06350132822990417,
                -0.004999999888241291,
                -0.06348789483308792
            ],
            "type" : "VEC3"
        },
        {
            "bufferView" : 1,
            "componentType" : 5126,
            "count" : 1902,
            "type" : "VEC3"
        },
        {
            "bufferView" : 2,
            "componentType" : 5126,
            "count" : 1902,
            "type" : "VEC2"
        },
        {
            "bufferView" : 3,
            "componentType" : 5123,
            "count" : 3420,
            "type" : "SCALAR"
        }
    ],
    "bufferViews" : [
        {
            "buffer" : 0,
            "byteLength" : 22824,
            "byteOffset" : 0
        },
        {
            "buffer" : 0,
            "byteLength" : 22824,
            "byteOffset" : 22824
        },
        {
            "buffer" : 0,
            "byteLength" : 15216,
            "byteOffset" : 45648
        },
        {
            "buffer" : 0,
            "byteLength" : 6840,
            "byteOffset" : 60864
        }
    ],
    "buffers" : [
        {
            "byteLength" : 67704,
            "uri" : "data:application/octet-stream;base64,"
        }
    ]
}
